<?xml version="1.0" encoding="UTF-8" standalone="no"?>
<!-- Created with Inkscape (http://www.inkscape.org/) -->

<svg
   xmlns:dc="http://purl.org/dc/elements/1.1/"
   xmlns:cc="http://creativecommons.org/ns#"
   xmlns:rdf="http://www.w3.org/1999/02/22-rdf-syntax-ns#"
   xmlns:svg="http://www.w3.org/2000/svg"
   xmlns="http://www.w3.org/2000/svg"
   xmlns:sodipodi="http://sodipodi.sourceforge.net/DTD/sodipodi-0.dtd"
   xmlns:inkscape="http://www.inkscape.org/namespaces/inkscape"
   width="48"
   height="48"
   viewBox="0 0 12.7 12.7"
   version="1.1"
   id="svg879"
   sodipodi:docname="ohmyfood-icone.svg"
   inkscape:version="0.92.2 (5c3e80d, 2017-08-06)">
  <defs
     id="defs873" />
  <sodipodi:namedview
     id="base"
     pagecolor="#ffffff"
     bordercolor="#666666"
     borderopacity="1.0"
     inkscape:pageopacity="0.0"
     inkscape:pageshadow="2"
     inkscape:zoom="3.6203867"
     inkscape:cx="100.42459"
     inkscape:cy="-19.205079"
     inkscape:document-units="mm"
     inkscape:current-layer="layer1"
     showgrid="false"
     inkscape:window-width="1920"
     inkscape:window-height="1017"
     inkscape:window-x="1912"
     inkscape:window-y="-8"
     inkscape:window-maximized="1"
     units="px"
     fit-margin-top="0"
     fit-margin-left="0"
     fit-margin-right="0"
     fit-margin-bottom="0" />
  <metadata
     id="metadata876">
    <rdf:RDF>
      <cc:Work
         rdf:about="">
        <dc:format>image/svg+xml</dc:format>
        <dc:type
           rdf:resource="http://purl.org/dc/dcmitype/StillImage" />
        <dc:title></dc:title>
      </cc:Work>
    </rdf:RDF>
  </metadata>
  <g
     inkscape:label="Calque 1"
     inkscape:groupmode="layer"
     id="layer1"
     transform="translate(-69.352937,-70.904022)">
    <path
       inkscape:connector-curvature="0"
       style="fill:#101010;stroke-width:0.26458332"
       d="m 72.943866,74.775398 c 0.8636,0 1.4986,0.174623 1.905,0.523875 0.41275,0.34925 0.619125,0.80645 0.619125,1.3716 0,0.1905 -0.0254,0.403225 -0.0762,0.638175 -0.12065,0.5207 -0.346075,0.9779 -0.676275,1.3716 -0.3302,0.38735 -0.7366,0.688975 -1.2192,0.904875 -0.47625,0.20955 -0.993775,0.314325 -1.552575,0.314325 -0.882653,0 -1.536703,-0.174625 -1.962153,-0.523875 -0.4191,-0.3556 -0.628651,-0.8255 -0.628651,-1.4097 0,-0.19685 0.0254,-0.415925 0.0762,-0.657225 0.120651,-0.4953 0.349251,-0.93345 0.685801,-1.31445 0.3429,-0.38735 0.758825,-0.6858 1.247775,-0.89535 0.4953,-0.2159 1.022353,-0.32385 1.581153,-0.32385 z m -0.02858,0.847725 c -0.13335,0 -0.276225,0.12065 -0.428625,0.36195 -0.14605,0.23495 -0.320675,0.682625 -0.523875,1.343025 -0.203203,0.6604 -0.304803,1.12395 -0.304803,1.39065 0,0.1397 0.02222,0.23495 0.06668,0.28575 0.04445,0.04445 0.104775,0.06667 0.180978,0.06667 0.13335,0.0127 0.269875,-0.1016 0.409575,-0.3429 0.14605,-0.2413 0.327025,-0.7112 0.542925,-1.4097 0.19685,-0.61595 0.295275,-1.063625 0.295275,-1.343025 0,-0.13335 -0.02223,-0.225425 -0.06668,-0.276225 -0.0381,-0.0508 -0.09525,-0.0762 -0.17145,-0.0762 z"
       id="path839" />
    <path
       inkscape:connector-curvature="0"
       style="fill:#101010;stroke-width:0.26458332"
       d="m 81.161269,78.499673 c -0.0127,0.0254 -0.01905,0.0635 -0.01905,0.1143 0,0.04445 0.0095,0.07937 0.02858,0.104775 0.0254,0.0254 0.05715,0.0381 0.09525,0.0381 0.0762,0 0.1397,-0.03175 0.1905,-0.09525 0.05715,-0.06985 0.09525,-0.104775 0.1143,-0.104775 0.03175,0 0.05715,0.02222 0.0762,0.06668 0.01905,0.0381 0.02858,0.08572 0.02858,0.142875 0.0063,0.18415 -0.05398,0.365125 -0.180975,0.542925 -0.127,0.17145 -0.314325,0.314325 -0.561975,0.428625 -0.2413,0.10795 -0.5334,0.161925 -0.8763,0.161925 -0.4191,0 -0.752475,-0.09525 -1.000125,-0.28575 -0.24765,-0.19685 -0.37465,-0.4572 -0.381,-0.78105 0,-0.23495 0.05715,-0.498475 0.17145,-0.790575 l 0.523875,-1.3716 c 0.03175,-0.08255 0.04763,-0.149225 0.04763,-0.200025 0,-0.08255 -0.02858,-0.14605 -0.08573,-0.1905 -0.0508,-0.0508 -0.1143,-0.0762 -0.1905,-0.0762 -0.12065,0 -0.244475,0.05715 -0.371475,0.17145 -0.12065,0.10795 -0.219075,0.28575 -0.295275,0.5334 v -0.01905 l -0.600075,1.933575 c -0.01905,0.0762 -0.02858,0.142875 -0.02858,0.200025 0,0.08255 0.01588,0.149225 0.04763,0.200025 0.03175,0.04445 0.0762,0.0889 0.13335,0.13335 0.04445,0.04445 0.0762,0.08255 0.09525,0.1143 0.01905,0.0254 0.02222,0.06032 0.0095,0.104775 -0.03175,0.08255 -0.09525,0.142875 -0.1905,0.180975 -0.09525,0.0381 -0.2413,0.05715 -0.43815,0.05715 h -2.1717 c -0.1651,0 -0.28575,-0.0254 -0.36195,-0.0762 -0.0762,-0.05715 -0.1016,-0.130175 -0.0762,-0.219075 0.0254,-0.0762 0.09207,-0.142875 0.200025,-0.200025 0.09525,-0.0508 0.174625,-0.111125 0.238125,-0.180975 0.0635,-0.06985 0.117475,-0.180975 0.161925,-0.333375 l 1.4478,-4.752975 c 0.01905,-0.05715 0.02857,-0.104775 0.02857,-0.142875 0,-0.06985 -0.01905,-0.127 -0.05715,-0.17145 -0.03175,-0.04445 -0.0762,-0.0889 -0.13335,-0.13335 -0.0635,-0.0508 -0.111125,-0.09525 -0.142875,-0.13335 -0.0254,-0.0381 -0.02858,-0.0889 -0.0095,-0.1524 0.0381,-0.14605 0.238125,-0.27305 0.600075,-0.381002 0.361935,-0.107949 0.73976,-0.161924 1.13346,-0.161924 0.3683,0 0.638175,0.06985 0.809625,0.209551 0.1778,0.1397 0.2667,0.3302 0.2667,0.5715 0,0.1397 -0.02223,0.276225 -0.06668,0.409575 l -0.51435,1.6764 c 0.24765,-0.32385 0.508,-0.549275 0.78105,-0.676275 0.2794,-0.127 0.581025,-0.1905 0.904875,-0.1905 0.38735,0 0.6985,0.117475 0.93345,0.352425 0.2413,0.23495 0.36195,0.53975 0.36195,0.9144 0,0.19685 -0.03175,0.390525 -0.09525,0.581025 z"
       id="path841" />
  </g>
</svg>
